<svg xmlns="http://www.w3.org/2000/svg" viewBox="0 0 64 64" role="img" aria-label="Padel Park">
  <rect width="64" height="64" rx="18" fill="#09090b"/>
  <path d="M16 14h32a2 2 0 0 1 2 2v32a2 2 0 0 1-2 2H16a2 2 0 0 1-2-2V16a2 2 0 0 1 2-2Z" fill="none" stroke="#ffffff" stroke-opacity=".16" stroke-width="2"/>
  <path d="M32 14v36M14 32h36" stroke="#ffffff" stroke-opacity=".12" stroke-width="2"/>
  <path d="M18 43V21h10c5 0 8 3 8 8s-3 8-8 8H18M34 43V21h10c5 0 8 3 8 8s-3 8-8 8H34" fill="none" stroke="#ffffff" stroke-linecap="round" stroke-linejoin="round" stroke-width="4.5"/>
</svg>
